<svg width="823.5474365234375px" height="208.76357421875px" xmlns="http://www.w3.org/2000/svg" viewBox="-161.77371826171873 -29.381787109374997 823.5474365234375 208.76357421875" style="background: rgba(0, 0, 0, 0);" preserveAspectRatio="xMidYMid"><defs><linearGradient id="editing-gradient-gradient" x1="0" x2="1" y1="0.5" y2="0.5" gradientUnits="objectBoundingBox"><stop offset="0" stop-color="#f0f"></stop><stop offset="1" stop-color="#0ff"></stop></linearGradient></defs><g><g transform="translate(-45.83497929573059, 130.29593658447266)"><path d="M64.14-24.63L64.14-24.63L64.14-24.63Q67.23-22.37 67.23-17.55L67.23-17.55L67.23-17.55Q67.23-12.73 65.15-9.34L65.15-9.34L65.15-9.34Q63.07-5.95 59.02-3.33L59.02-3.33L59.02-3.33Q50.34 2.26 35.16 2.26L35.16 2.26L35.16 2.26Q19.99 2.26 11.72-5.65L11.72-5.65L11.72-5.65Q3.45-13.57 3.45-27.61L3.45-27.61L3.45-27.61Q3.45-47.48 13.80-62.59L13.80-62.59L13.80-62.59Q21.66-73.78 35.70-78.54L35.70-78.54L35.70-78.54Q42.96-80.92 50.10-80.92L50.10-80.92L50.10-80.92Q57.24-80.92 61.64-79.97L61.64-79.97L61.64-79.97Q66.05-79.02 69.38-77.11L69.38-77.11L69.38-77.11Q76.64-72.95 76.64-66.28L76.64-66.28L76.64-66.28Q76.64-60.21 70.92-55.69L70.92-55.69L70.92-55.69Q65.69-51.65 61.40-51.65L61.40-51.65L61.40-51.65Q57.12-51.65 55.34-52.24L55.34-52.24L55.34-52.24Q55.81-56.53 55.81-59.32L55.81-59.32L55.81-59.32Q55.81-62.12 55.69-64.14L55.69-64.14L55.69-64.14Q55.57-66.16 54.98-68.07L54.98-68.07L54.98-68.07Q53.79-72.47 50.16-72.47L50.16-72.47L50.16-72.47Q46.53-72.47 42.90-69.08L42.90-69.08L42.90-69.08Q39.27-65.69 36.18-59.98L36.18-59.98L36.18-59.98Q29.16-47.01 29.16-31.65L29.16-31.65L29.16-31.65Q29.16-24.28 33.32-20.05L33.32-20.05L33.32-20.05Q37.48-15.83 46.41-15.83L46.41-15.83L46.41-15.83Q53.07-15.83 59.38-20.23L59.38-20.23L59.38-20.23Q62.12-22.13 64.14-24.63ZM105.67-6.55L105.67-6.55L105.67-6.55Q101.98 2.38 90.20 2.38L90.20 2.38L90.20 2.38Q84.13 2.38 80.33-1.79L80.33-1.79L80.33-1.79Q77.11-5.47 77.11-9.16L77.11-9.16L77.11-9.16Q77.11-18.80 81.52-37.60L81.52-37.60L85.92-60.69L110.08-63.07L102.82-25.47L102.82-25.47Q100.79-16.66 100.79-13.57L100.79-13.57L100.79-13.57Q100.79-6.78 105.67-6.55ZM88.06-77.23L88.06-77.23L88.06-77.23Q88.06-81.87 91.93-84.37L91.93-84.37L91.93-84.37Q95.80-86.87 101.39-86.87L101.39-86.87L101.39-86.87Q106.98-86.87 110.37-84.37L110.37-84.37L110.37-84.37Q113.76-81.87 113.76-77.23L113.76-77.23L113.76-77.23Q113.76-72.59 110.02-70.21L110.02-70.21L110.02-70.21Q106.27-67.83 100.67-67.83L100.67-67.83L100.67-67.83Q95.08-67.83 91.57-70.21L91.57-70.21L91.57-70.21Q88.06-72.59 88.06-77.23ZM166.12 2.38L166.12 2.38L166.12 2.38Q151.73 2.38 151.73-8.81L151.73-8.81L151.73-8.81Q151.84-11.90 152.80-17.14L152.80-17.14L154.94-28.08L154.94-28.08Q158.15-43.55 158.15-47.01L158.15-47.01L158.15-47.01Q158.15-53.91 154.11-53.91L154.11-53.91L154.11-53.91Q147.32-53.91 143.75-36.18L143.75-36.18L136.73 0L112.81 2.38L125.19-60.81L144.70-63.07L142.80-51.41L142.80-51.41Q148.39-63.07 165.53-63.07L165.53-63.07L165.53-63.07Q173.86-63.07 177.37-59.56L177.37-59.56L177.37-59.56Q180.88-56.05 180.88-48.20L180.88-48.20L180.88-48.20Q180.88-40.82 177.07-23.56L177.07-23.56L177.07-23.56Q175.29-15.83 175.29-12.91L175.29-12.91L175.29-12.91Q175.29-10.00 176.89-8.33L176.89-8.33L176.89-8.33Q178.50-6.66 180.88-6.43L180.88-6.43L180.88-6.43Q179.69-2.38 175.58 0L175.58 0L175.58 0Q171.48 2.38 166.12 2.38ZM238.60-20.11L238.60-20.11L238.60-20.11Q241.57-18.09 241.57-13.63L241.57-13.63L241.57-13.63Q241.57-9.16 239.31-6.31L239.31-6.31L239.31-6.31Q237.05-3.45 233.36-1.55L233.36-1.55L233.36-1.55Q225.74 2.38 217.53 2.38L217.53 2.38L217.53 2.38Q209.32 2.38 204.50 0.60L204.50 0.60L204.50 0.60Q199.68-1.19 196.47-4.52L196.47-4.52L196.47-4.52Q190.16-10.83 190.16-22.37L190.16-22.37L190.16-22.37Q190.16-40.34 199.92-51.29L199.92-51.29L199.92-51.29Q210.39-63.07 228.60-63.07L228.60-63.07L228.60-63.07Q239.90-63.07 245.50-58.31L245.50-58.31L245.50-58.31Q249.66-54.74 249.66-48.91L249.66-48.91L249.66-48.91Q249.66-27.97 213.49-27.97L213.49-27.97L213.49-27.97Q213.01-24.87 213.01-22.25L213.01-22.25L213.01-22.25Q213.01-16.78 215.45-14.70L215.45-14.70L215.45-14.70Q217.89-12.61 222.41-12.61L222.41-12.61L222.41-12.61Q226.93-12.61 231.75-14.70L231.75-14.70L231.75-14.70Q236.57-16.78 238.60-20.11ZM214.32-33.08L214.32-33.08L214.32-33.08Q222.77-33.08 227.65-38.32L227.65-38.32L227.65-38.32Q232.53-43.32 232.53-51.29L232.53-51.29L232.53-51.29Q232.53-54.03 231.51-55.51L231.51-55.51L231.51-55.51Q230.50-57.00 228.48-57.00L228.48-57.00L228.48-57.00Q226.46-57.00 224.73-56.23L224.73-56.23L224.73-56.23Q223.01-55.45 221.22-52.84L221.22-52.84L221.22-52.84Q216.82-46.89 214.32-33.08ZM300.12-54.98L300.12-54.98L300.12-54.98Q301.90-58.55 301.90-61.88L301.90-61.88L301.90-61.88Q301.90-65.21 301.55-67.06L301.55-67.06L301.55-67.06Q301.19-68.90 300.36-70.33L300.36-70.33L300.36-70.33Q298.57-73.42 295.00-73.42L295.00-73.42L295.00-73.42Q290.60-73.42 287.03-70.21L287.03-70.21L287.03-70.21Q283.22-66.88 283.22-61.64L283.22-61.64L283.22-61.64Q283.22-58.31 285.54-55.75L285.54-55.75L285.54-55.75Q287.86-53.19 291.43-50.81L291.43-50.81L291.43-50.81Q295.00-48.43 299.05-46.05L299.05-46.05L299.05-46.05Q303.09-43.67 306.66-40.82L306.66-40.82L306.66-40.82Q314.87-34.27 314.87-25.47L314.87-25.47L314.87-25.47Q314.87-19.52 311.72-14.46L311.72-14.46L311.72-14.46Q308.57-9.40 303.33-5.71L303.33-5.71L303.33-5.71Q291.91 2.38 276.79 2.38L276.79 2.38L276.79 2.38Q264.54 2.38 258.23-1.61L258.23-1.61L258.23-1.61Q251.92-5.59 251.92-11.66L251.92-11.66L251.92-11.66Q251.92-22.49 260.37-25.23L260.37-25.23L260.37-25.23Q262.75-26.06 266.38-26.06L266.38-26.06L266.38-26.06Q270.01-26.06 274.18-24.51L274.18-24.51L274.18-24.51Q272.27-19.64 272.27-15.23L272.27-15.23L272.27-15.23Q272.27-5.71 279.06-5.71L279.06-5.71L279.06-5.71Q283.46-5.71 287.09-8.93L287.09-8.93L287.09-8.93Q290.72-12.14 290.72-15.77L290.72-15.77L290.72-15.77Q290.72-19.40 288.40-22.02L288.40-22.02L288.40-22.02Q286.08-24.63 282.63-26.72L282.63-26.72L282.63-26.72Q279.17-28.80 275.19-30.82L275.19-30.82L275.19-30.82Q271.20-32.84 267.75-35.70L267.75-35.70L267.75-35.70Q259.66-42.25 259.66-52.72L259.66-52.72L259.66-52.72Q259.66-59.50 262.99-64.80L262.99-64.80L262.99-64.80Q266.32-70.09 271.68-73.66L271.68-73.66L271.68-73.66Q282.39-80.92 295.54-80.92L295.54-80.92L295.54-80.92Q308.69-80.92 315.05-76.99L315.05-76.99L315.05-76.99Q321.42-73.07 321.42-66.40L321.42-66.40L321.42-66.40Q321.42-60.57 316.90-56.88L316.90-56.88L316.90-56.88Q312.97-53.79 308.21-53.79L308.21-53.79L308.21-53.79Q303.45-53.79 300.12-54.98ZM382.35-49.50L382.35-49.50L382.35-49.50Q382.35-44.51 378.18-41.41L378.18-41.41L378.18-41.41Q374.02-38.32 367.23-38.32L367.23-38.32L367.23-38.32Q364.38-38.32 362.71-39.15L362.71-39.15L362.71-39.15Q364.02-42.25 364.44-46.11L364.44-46.11L364.44-46.11Q364.85-49.98 364.85-51.05L364.85-51.05L364.85-51.05Q364.85-56.05 361.40-56.05L361.40-56.05L361.40-56.05Q359.02-56.05 356.35-53.07L356.35-53.07L356.35-53.07Q353.67-50.10 351.41-45.46L351.41-45.46L351.41-45.46Q346.41-34.75 346.41-23.92L346.41-23.92L346.41-23.92Q346.41-17.97 348.67-15.29L348.67-15.29L348.67-15.29Q350.93-12.61 355.93-12.61L355.93-12.61L355.93-12.61Q362.83-12.61 368.31-18.33L368.31-18.33L368.31-18.33Q369.85-20.11 370.69-22.13L370.69-22.13L370.69-22.13Q375.21-19.75 375.21-13.21L375.21-13.21L375.21-13.21Q375.21-6.55 367.83-2.14L367.83-2.14L367.83-2.14Q360.21 2.38 348.07 2.38L348.07 2.38L348.07 2.38Q323.92 2.38 323.92-23.21L323.92-23.21L323.92-23.21Q323.92-41.89 334.51-52.60L334.51-52.60L334.51-52.60Q344.74-63.07 363.54-63.07L363.54-63.07L363.54-63.07Q382.35-63.07 382.35-49.50ZM411.50 2.38L411.50 2.38L411.50 2.38Q385.32 2.38 385.32-22.25L385.32-22.25L385.32-22.25Q385.32-39.75 394.96-51.05L394.96-51.05L394.96-51.05Q405.19-63.07 422.93-63.07L422.93-63.07L422.93-63.07Q435.78-63.07 442.32-57.12L442.32-57.12L442.32-57.12Q448.87-51.17 448.87-38.68L448.87-38.68L448.87-38.68Q448.87-19.64 438.63-8.57L438.63-8.57L438.63-8.57Q428.64 2.38 411.50 2.38ZM414.60-49.39L414.60-49.39L414.60-49.39Q413.17-46.17 412.04-41.35L412.04-41.35L412.04-41.35Q410.91-36.53 409.48-28.92L409.48-28.92L409.48-28.92Q408.05-21.30 408.05-11.90L408.05-11.90L408.05-11.90Q408.05-8.81 409.06-6.78L409.06-6.78L409.06-6.78Q410.07-4.76 412.81-4.76L412.81-4.76L412.81-4.76Q415.55-4.76 417.27-6.07L417.27-6.07L417.27-6.07Q419.00-7.38 420.31-10.47L420.31-10.47L420.31-10.47Q422.69-15.95 424.59-26.12L424.59-26.12L424.59-26.12Q426.50-36.30 426.67-40.70L426.67-40.70L426.67-40.70Q426.85-45.10 426.85-48.37L426.85-48.37L426.85-48.37Q426.85-51.65 425.90-53.79L425.90-53.79L425.90-53.79Q424.95-55.93 422.27-55.93L422.27-55.93L422.27-55.93Q419.59-55.93 417.81-54.26L417.81-54.26L417.81-54.26Q416.02-52.60 414.60-49.39ZM511.34-8.15L511.34-8.15L511.34-8.15Q506.34-3.09 499.50-0.36L499.50-0.36L499.50-0.36Q492.66 2.38 485.88 2.38L485.88 2.38L485.88 2.38Q479.09 2.38 476.71 1.19L476.71 1.19L473.02 21.42L448.87 23.80L465.29-60.69L484.69-62.71L483.14-54.50L483.14-54.50Q488.14-62.95 498.49-62.95L498.49-62.95L498.49-62.95Q510.15-62.95 516.34-55.45L516.34-55.45L516.34-55.45Q521.81-48.67 521.81-38.32L521.81-38.32L521.81-38.32Q521.81-27.97 519.08-20.59L519.08-20.59L519.08-20.59Q516.34-13.21 511.34-8.15ZM484.45-41.53L478.14-6.66L478.14-6.66Q480.64-4.52 483.74-4.52L483.74-4.52L483.74-4.52Q486.83-4.52 488.61-5.71L488.61-5.71L488.61-5.71Q490.40-6.90 491.71-9.28L491.71-9.28L491.71-9.28Q495.28-15.71 498.13-35.22L498.13-35.22L498.13-35.22Q498.97-40.94 498.97-46.53L498.97-46.53L498.97-46.53Q498.97-52.12 497.72-53.91L497.72-53.91L497.72-53.91Q496.47-55.69 494.09-55.69L494.09-55.69L494.09-55.69Q486.83-55.69 484.45-41.53L484.45-41.53ZM577.15-20.11L577.15-20.11L577.15-20.11Q580.13-18.09 580.13-13.63L580.13-13.63L580.13-13.63Q580.13-9.16 577.86-6.31L577.86-6.31L577.86-6.31Q575.60-3.45 571.91-1.55L571.91-1.55L571.91-1.55Q564.30 2.38 556.09 2.38L556.09 2.38L556.09 2.38Q547.88 2.38 543.06 0.60L543.06 0.60L543.06 0.60Q538.24-1.19 535.02-4.52L535.02-4.52L535.02-4.52Q528.72-10.83 528.72-22.37L528.72-22.37L528.72-22.37Q528.72-40.34 538.48-51.29L538.48-51.29L538.48-51.29Q548.95-63.07 567.15-63.07L567.15-63.07L567.15-63.07Q578.46-63.07 584.05-58.31L584.05-58.31L584.05-58.31Q588.22-54.74 588.22-48.91L588.22-48.91L588.22-48.91Q588.22-27.97 552.04-27.97L552.04-27.97L552.04-27.97Q551.57-24.87 551.57-22.25L551.57-22.25L551.57-22.25Q551.57-16.78 554.00-14.70L554.00-14.70L554.00-14.70Q556.44-12.61 560.97-12.61L560.97-12.61L560.97-12.61Q565.49-12.61 570.31-14.70L570.31-14.70L570.31-14.70Q575.13-16.78 577.15-20.11ZM552.87-33.08L552.87-33.08L552.87-33.08Q561.32-33.08 566.20-38.32L566.20-38.32L566.20-38.32Q571.08-43.32 571.08-51.29L571.08-51.29L571.08-51.29Q571.08-54.03 570.07-55.51L570.07-55.51L570.07-55.51Q569.06-57.00 567.03-57.00L567.03-57.00L567.03-57.00Q565.01-57.00 563.29-56.23L563.29-56.23L563.29-56.23Q561.56-55.45 559.78-52.84L559.78-52.84L559.78-52.84Q555.37-46.89 552.87-33.08Z" fill="url(#editing-gradient-gradient)"></path></g></g><style>text {
  font-size: 64px;
  font-family: Arial Black;
  dominant-baseline: central;
  text-anchor: middle;
}</style></svg>